<?xml version="1.0" encoding="UTF-8" standalone="no"?>
<!-- Created with Inkscape (http://www.inkscape.org/) -->

<svg
   width="3000"
   height="3000"
   viewBox="0 0 793.74998 793.75"
   version="1.1"
   id="svg1"
   inkscape:version="1.3 (0e150ed, 2023-07-21)"
   xml:space="preserve"
   inkscape:export-filename="logo_black.png"
   inkscape:export-xdpi="96"
   inkscape:export-ydpi="96"
   sodipodi:docname="logo_black.svg"
   xmlns:inkscape="http://www.inkscape.org/namespaces/inkscape"
   xmlns:sodipodi="http://sodipodi.sourceforge.net/DTD/sodipodi-0.dtd"
   xmlns="http://www.w3.org/2000/svg"
   xmlns:svg="http://www.w3.org/2000/svg"><sodipodi:namedview
     id="namedview1"
     pagecolor="#ffffff"
     bordercolor="#eeeeee"
     borderopacity="1"
     inkscape:showpageshadow="false"
     inkscape:pageopacity="0"
     inkscape:pagecheckerboard="false"
     inkscape:deskcolor="#2a2a2a"
     inkscape:document-units="px"
     showguides="true"
     guidecolor="#e50000"
     guideopacity="0.6"
     guidehicolor="#002dc5"
     guidehiopacity="0.49803922"
     showgrid="true"
     inkscape:zoom="0.1387287"
     inkscape:cx="1438.0586"
     inkscape:cy="1690.3496"
     inkscape:window-width="1366"
     inkscape:window-height="626"
     inkscape:window-x="0"
     inkscape:window-y="48"
     inkscape:window-maximized="1"
     inkscape:current-layer="layer1" /><defs
     id="defs1" /><g
     inkscape:label="Layer 1"
     inkscape:groupmode="layer"
     id="layer1"><path
       id="path1"
       style="fill:#000000;stroke-width:6.39893"
       d="M 429.8585,18.299477 C 364.98382,16.475014 308.20424,29.273454 248.70203,59.131066 214.89405,76.095597 182.32821,99.728457 154.58564,127.4318 91.786642,190.14199 53.305573,270.49402 43.730465,358.92017 c -2.452518,22.64844 -1.140225,72.63332 2.519708,96.03102 9.600128,61.37293 34.516036,120.28483 71.802547,169.77795 37.35806,49.58802 80.2668,85.0241 136.82633,112.9946 38.03347,18.80889 74.12472,29.69623 119.10877,35.92776 23.19786,3.21354 80.18432,2.35712 104.80051,-1.57401 62.78875,-10.02705 118.44661,-33.63694 170.55503,-72.35144 15.64354,-11.62257 49.98896,-44.20071 63.0033,-59.75945 8.25071,-9.86383 32.30008,-44.79982 36.5626,-53.11287 3.39393,-6.61906 2.46915,-15.27413 -2.06007,-19.26175 -1.61138,-1.41864 -29.59539,-17.96807 -62.18656,-36.77755 -79.29945,-45.76651 -92.45918,-53.38731 -108.35522,-62.72885 -20.53423,-12.06717 -23.83371,-13.50803 -30.92136,-13.50803 -6.9884,0 -9.98905,2.42546 -19.89665,16.08398 -12.70373,17.51311 -33.81049,34.83515 -52.45813,43.05042 -32.46953,14.30443 -77.52185,13.48556 -108.26597,-1.97081 -68.55107,-34.4635 -92.78824,-119.76459 -52.28286,-184.00022 12.87145,-20.41221 38.88739,-42.11842 60.65887,-50.613 26.36155,-10.28545 60.24825,-11.49395 86.34559,-3.07858 26.55257,8.56222 51.23684,26.62179 65.81405,48.15279 9.69073,14.31352 12.82045,17.27066 19.07656,18.01844 5.37108,0.642 10.16304,-1.79087 56.47909,-28.69595 16.29559,-9.46607 33.43782,-19.33355 38.09368,-21.92697 4.65593,-2.59349 27.51209,-15.75513 50.79151,-29.24812 23.27945,-13.49304 45.60333,-26.41299 49.60772,-28.70913 8.10764,-4.64894 13.21521,-13.17111 11.6364,-19.41384 -1.59417,-6.30352 -18.63971,-32.43932 -32.80285,-50.29555 C 683.11953,117.72482 637.61323,80.916168 588.15875,56.756871 535.7609,31.159668 489.75801,19.983996 429.8585,18.299477 Z m -9.3283,32.53499 c 23.11436,-0.0064 46.51583,2.263814 70.27814,6.811919 8.09734,1.549821 40.93557,10.94339 43.78783,12.525911 1.2698,0.704458 -11.30116,1.728543 -27.93531,2.275012 -42.12104,1.383705 -69.44787,7.897819 -108.40822,25.84881 -58.8641,27.121631 -109.7129,81.897511 -134.62395,145.017091 -14.48865,36.71113 -19.16678,65.07676 -17.80681,107.9882 1.31466,41.48057 7.80682,69.04781 25.05188,106.37451 19.27108,41.7124 51.41939,72.93093 91.17673,88.538 15.82417,6.21189 41.244,11.62034 54.68687,11.63313 3.4919,0.004 6.3489,0.6015 6.3489,1.32599 0,1.93401 -28.94769,11.71381 -46.55889,15.73017 v -0.004 c -11.21561,2.55785 -22.83421,3.633 -44.01928,4.07389 -30.42328,0.6335 -31.39874,0.57142 -52.20685,-3.46873 C 219.31494,563.66317 160.63263,523.8739 127.14957,471.66348 88.338449,411.14473 79.484502,337.374 102.51439,266.40088 c 3.87871,-11.95333 21.41248,-47.27723 30.24013,-60.9234 14.6345,-22.62253 44.07381,-55.88207 64.56741,-72.94668 44.45403,-37.01604 99.72064,-63.764157 154.65626,-74.848068 22.61024,-4.560456 45.4376,-6.841739 68.55201,-6.848265 z m 93.13429,55.930193 c 37.92877,-0.0512 49.78639,1.7526 79.39815,12.05969 42.63711,14.84104 79.54545,40.95522 107.14832,75.81698 11.65821,14.72401 11.65526,14.6574 0.53558,20.8126 -7.49282,4.14759 -64.40658,36.98621 -111.26187,64.19703 -19.75676,11.4736 -36.61725,20.85892 -37.46862,20.85892 -0.85138,0 -3.46132,-2.50889 -5.80006,-5.57513 -5.52695,-7.24622 -20.31271,-21.39887 -30.22356,-28.93399 -30.07915,-22.86889 -75.12949,-34.82805 -113.26911,-30.0682 -35.84151,4.47304 -66.36276,18.8558 -93.77252,44.19129 -4.57498,4.22879 -12.85303,13.78316 -18.39872,21.23254 -10.08312,13.54437 -10.08434,13.54495 -8.96785,4.57659 2.96027,-23.78029 15.81067,-60.7157 28.88433,-83.02238 17.54364,-29.93363 43.62671,-57.80514 71.75961,-76.68328 21.01161,-14.09952 28.01447,-17.73137 50.05079,-25.95791 30.37817,-11.3407 43.11787,-13.45356 81.38546,-13.50475 z M 81.424019,460.75451 c 0.188128,-1.95935 1.848972,0.32059 5.012987,6.5209 37.060314,72.62443 107.501174,125.13407 190.200404,141.7798 26.83783,5.40211 73.18376,5.37165 100.27683,-0.0659 66.75707,-13.39878 127.42041,-51.13547 164.68562,-102.43949 5.12152,-7.05085 9.81034,-12.86845 10.41951,-12.92603 1.20288,-0.11518 2.09277,0.38649 60.68863,34.14208 85.92012,49.49638 94.04081,54.25041 96.28229,56.3634 5.98006,5.63752 -48.05289,65.65004 -81.04483,90.01277 -32.36056,23.89649 -63.27847,39.93835 -100.71011,52.2531 -25.99848,8.55339 -42.63244,11.99359 -73.67417,15.23746 -21.40642,2.23694 -39.82524,2.72255 -51.63805,1.36566 -2.79358,-0.32058 -13.4597,-1.4244 -23.70266,-2.45361 C 331.19458,735.8196 273.27759,714.65053 232.61806,687.326 208.12833,670.86807 194.19714,659.44579 175.04443,640.12561 131.14205,595.83918 101.07712,542.11489 85.246613,479.66604 82.520539,468.91206 81.23557,462.71412 81.424019,460.75477 Z" /><path
       style="fill:#000000;fill-opacity:1;stroke:#000000;stroke-width:2.51316;stroke-linecap:round"
       d="m 280.83232,341.44281 c 0,0 49.54972,-114.59525 148.14697,-88.60099 98.59724,25.99425 116.51884,68.19536 116.51884,68.19536 L 737.73794,211.3269 c 0,0 -68.69521,-110.68557 -164.2044,-122.672526 -95.50919,-11.986959 -194.63943,13.076666 -236.19923,76.903236 -41.55981,63.82656 -84.43068,92.05933 -56.50199,175.8852 z"
       id="path2" /><path
       style="fill:#000000;fill-opacity:1;stroke:#000000;stroke-width:2.51316;stroke-linecap:round"
       d="m 542.85673,486.1318 c 0,0 -124.01787,133.74917 -262.33624,97.35766 C 142.20214,547.09793 89.156955,462.7158 83.587968,406.23416 78.01898,349.7525 59.423172,447.92995 59.423172,447.92995 c 0,0 5.43032,164.8092 177.482698,267.07664 172.0524,102.26741 366.23263,-0.61872 366.23263,-0.61872 l 117.01966,-99.81271 10.90817,-36.26923 c 0,0 -175.86926,-118.5065 -188.2096,-92.17413 z"
       id="path3" /></g></svg>
